<svg width="24" height="24" viewBox="0 0 24 24" fill="none" xmlns="http://www.w3.org/2000/svg">
<path opacity="0.4" d="M21.5 12C21.5 17.2467 17.2467 21.5 12 21.5C6.75329 21.5 2.5 17.2467 2.5 12C2.5 6.75329 6.75329 2.5 12 2.5C17.2467 2.5 21.5 6.75329 21.5 12Z" fill="#26D07C" stroke="#26D07C"/>
<path d="M10.2264 14.1236L10.5799 14.4771L10.9335 14.1236L16.0735 8.98356C16.1682 8.88882 16.3317 8.88882 16.4264 8.98356C16.5211 9.0783 16.5211 9.24171 16.4264 9.33645L10.7564 15.0065C10.7091 15.0538 10.6458 15.08 10.5799 15.08C10.5141 15.08 10.4508 15.0538 10.4035 15.0065L7.57349 12.1765C7.47876 12.0817 7.47876 11.9183 7.57349 11.8236C7.66823 11.7288 7.83165 11.7288 7.92639 11.8236L10.2264 14.1236Z" fill="#26D07C" stroke="#26D07C"/>
</svg>
