<svg width="16" height="16" viewBox="0 0 16 16" fill="none" xmlns="http://www.w3.org/2000/svg">
<path d="M10.6668 8.60001V11.4C10.6668 13.7333 9.7335 14.6667 7.40016 14.6667H4.60016C2.26683 14.6667 1.3335 13.7333 1.3335 11.4V8.60001C1.3335 6.26668 2.26683 5.33334 4.60016 5.33334H7.40016C9.7335 5.33334 10.6668 6.26668 10.6668 8.60001Z" stroke="#8A8A8E" stroke-width="1.5" stroke-linecap="round" stroke-linejoin="round"/>
<path d="M14.6668 4.60001V7.40001C14.6668 9.73334 13.7335 10.6667 11.4002 10.6667H10.6668V8.60001C10.6668 6.26668 9.7335 5.33334 7.40016 5.33334H5.3335V4.60001C5.3335 2.26668 6.26683 1.33334 8.60016 1.33334H11.4002C13.7335 1.33334 14.6668 2.26668 14.6668 4.60001Z" stroke="#8A8A8E" stroke-width="1.5" stroke-linecap="round" stroke-linejoin="round"/>
</svg>
