<svg width="16" height="16" viewBox="0 0 16 16" fill="none" xmlns="http://www.w3.org/2000/svg">
<path opacity="0.4" d="M14.1666 7.99967C14.1666 11.4054 11.4057 14.1663 7.99992 14.1663C4.59416 14.1663 1.83325 11.4054 1.83325 7.99967C1.83325 4.59392 4.59416 1.83301 7.99992 1.83301C11.4057 1.83301 14.1666 4.59392 14.1666 7.99967Z" fill="#FF284C" stroke="#FF284C"/>
<mask id="path-2-inside-1_3_123377" fill="white">
<path d="M8.70666 8.00023L10.24 6.4669C10.4333 6.27357 10.4333 5.95357 10.24 5.76023C10.0467 5.5669 9.72666 5.5669 9.53332 5.76023L7.99999 7.29357L6.46666 5.76023C6.27332 5.5669 5.95332 5.5669 5.75999 5.76023C5.56666 5.95357 5.56666 6.27357 5.75999 6.4669L7.29332 8.00023L5.75999 9.53357C5.56666 9.7269 5.56666 10.0469 5.75999 10.2402C5.85999 10.3402 5.98666 10.3869 6.11332 10.3869C6.23999 10.3869 6.36666 10.3402 6.46666 10.2402L7.99999 8.7069L9.53332 10.2402C9.63332 10.3402 9.75999 10.3869 9.88666 10.3869C10.0133 10.3869 10.14 10.3402 10.24 10.2402C10.4333 10.0469 10.4333 9.7269 10.24 9.53357L8.70666 8.00023Z"/>
</mask>
<path d="M8.70666 8.00023L10.24 6.4669C10.4333 6.27357 10.4333 5.95357 10.24 5.76023C10.0467 5.5669 9.72666 5.5669 9.53332 5.76023L7.99999 7.29357L6.46666 5.76023C6.27332 5.5669 5.95332 5.5669 5.75999 5.76023C5.56666 5.95357 5.56666 6.27357 5.75999 6.4669L7.29332 8.00023L5.75999 9.53357C5.56666 9.7269 5.56666 10.0469 5.75999 10.2402C5.85999 10.3402 5.98666 10.3869 6.11332 10.3869C6.23999 10.3869 6.36666 10.3402 6.46666 10.2402L7.99999 8.7069L9.53332 10.2402C9.63332 10.3402 9.75999 10.3869 9.88666 10.3869C10.0133 10.3869 10.14 10.3402 10.24 10.2402C10.4333 10.0469 10.4333 9.7269 10.24 9.53357L8.70666 8.00023Z" fill="#FF284C"/>
<path d="M8.70666 8.00023L7.99955 7.29313L7.29244 8.00023L7.99955 8.70734L8.70666 8.00023ZM10.24 6.4669L9.53288 5.75979V5.75979L10.24 6.4669ZM9.53332 5.76023L10.2404 6.46734V6.46734L9.53332 5.76023ZM7.99999 7.29357L7.29288 8.00067L7.99999 8.70778L8.7071 8.00067L7.99999 7.29357ZM6.46666 5.76023L5.75955 6.46734L5.75955 6.46734L6.46666 5.76023ZM5.75999 6.4669L6.4671 5.75979L6.4671 5.75979L5.75999 6.4669ZM7.29332 8.00023L8.00043 8.70734L8.70754 8.00023L8.00043 7.29313L7.29332 8.00023ZM5.75999 9.53357L6.4671 10.2407H6.4671L5.75999 9.53357ZM6.46666 10.2402L5.75955 9.53313H5.75955L6.46666 10.2402ZM7.99999 8.7069L8.7071 7.99979L7.99999 7.29269L7.29288 7.99979L7.99999 8.7069ZM9.53332 10.2402L10.2404 9.53313V9.53313L9.53332 10.2402ZM10.24 9.53357L9.53288 10.2407H9.53288L10.24 9.53357ZM9.41376 8.70734L10.9471 7.17401L9.53288 5.75979L7.99955 7.29313L9.41376 8.70734ZM10.9471 7.17401C11.531 6.59015 11.531 5.63699 10.9471 5.05313L9.53288 6.46734C9.33569 6.27015 9.33569 5.95698 9.53288 5.75979L10.9471 7.17401ZM10.9471 5.05313C10.3632 4.46927 9.41007 4.46927 8.82622 5.05313L10.2404 6.46734C10.0432 6.66453 9.73007 6.66453 9.53288 6.46734L10.9471 5.05313ZM8.82622 5.05313L7.29288 6.58646L8.7071 8.00067L10.2404 6.46734L8.82622 5.05313ZM8.7071 6.58646L7.17376 5.05313L5.75955 6.46734L7.29288 8.00067L8.7071 6.58646ZM7.17376 5.05313C6.58991 4.46927 5.63674 4.46927 5.05288 5.05313L6.4671 6.46734C6.26991 6.66453 5.95674 6.66453 5.75955 6.46734L7.17376 5.05313ZM5.05288 5.05313C4.46903 5.63699 4.46903 6.59015 5.05288 7.17401L6.4671 5.75979C6.66429 5.95698 6.66429 6.27015 6.4671 6.46734L5.05288 5.05313ZM5.05288 7.17401L6.58622 8.70734L8.00043 7.29313L6.4671 5.75979L5.05288 7.17401ZM6.58622 7.29313L5.05288 8.82646L6.4671 10.2407L8.00043 8.70734L6.58622 7.29313ZM5.05288 8.82646C4.46903 9.41032 4.46903 10.3635 5.05288 10.9473L6.4671 9.53313C6.66429 9.73032 6.66429 10.0435 6.4671 10.2407L5.05288 8.82646ZM5.05288 10.9473C5.3503 11.2448 5.73575 11.3869 6.11332 11.3869V9.3869C6.23756 9.3869 6.36968 9.43571 6.4671 9.53313L5.05288 10.9473ZM6.11332 11.3869C6.4909 11.3869 6.87635 11.2448 7.17376 10.9473L5.75955 9.53313C5.85697 9.43571 5.98908 9.3869 6.11332 9.3869V11.3869ZM7.17376 10.9473L8.7071 9.41401L7.29288 7.99979L5.75955 9.53313L7.17376 10.9473ZM7.29288 9.41401L8.82622 10.9473L10.2404 9.53313L8.7071 7.99979L7.29288 9.41401ZM8.82622 10.9473C9.12364 11.2448 9.50908 11.3869 9.88666 11.3869V9.3869C10.0109 9.3869 10.143 9.43571 10.2404 9.53313L8.82622 10.9473ZM9.88666 11.3869C10.2642 11.3869 10.6497 11.2448 10.9471 10.9473L9.53288 9.53313C9.6303 9.43571 9.76242 9.3869 9.88666 9.3869V11.3869ZM10.9471 10.9473C11.531 10.3635 11.531 9.41032 10.9471 8.82646L9.53288 10.2407C9.33569 10.0435 9.33569 9.73032 9.53288 9.53313L10.9471 10.9473ZM10.9471 8.82646L9.41376 7.29313L7.99955 8.70734L9.53288 10.2407L10.9471 8.82646Z" fill="#FF284C" mask="url(#path-2-inside-1_3_123377)"/>
</svg>
