<svg width="33" height="33" viewBox="0 0 33 33" fill="none" xmlns="http://www.w3.org/2000/svg">
<path d="M16.125 32.75C25.0306 32.75 32.25 25.5306 32.25 16.625C32.25 7.71941 25.0306 0.5 16.125 0.5C7.21941 0.5 0 7.71941 0 16.625C0 25.5306 7.21941 32.75 16.125 32.75Z" fill="#47474A"/>
<path d="M16.374 4.46948V13.2727L23.8146 16.5976L16.374 4.46948Z" fill="black" fill-opacity="0.6"/>
<path d="M16.3733 4.47034L8.93164 16.5985L16.3733 13.2735V4.47034Z" fill="#9D9D9E"/>
<path d="M16.374 22.3024V28.2843L23.8184 17.9831L16.374 22.3024Z" fill="black" fill-opacity="0.6"/>
<path d="M16.3733 28.2843V22.3014L8.93164 17.9831L16.3733 28.2843Z" fill="black"/>
<path d="M16.374 20.918L23.8146 16.5975L16.374 13.2747V20.918Z" fill="black"/>
<path d="M8.93164 16.5975L16.3733 20.918V13.2747L8.93164 16.5975Z" fill="black" fill-opacity="0.6"/>
</svg>
