<svg width="119" height="119" viewBox="0 0 119 119" fill="none" xmlns="http://www.w3.org/2000/svg">
<path d="M59.13 118.26C91.7866 118.26 118.26 91.7866 118.26 59.13C118.26 26.4734 91.7866 0 59.13 0C26.4734 0 0 26.4734 0 59.13C0 91.7866 26.4734 118.26 59.13 118.26Z" fill="#FCC725"/>
<path d="M90.392 65.7577L87.4782 68.7355L77.6054 59.0762L80.5299 56.0877L86.4216 61.8406L89.0899 59.1829L79.676 49.7797L70.2729 59.1829L79.676 68.5967L81.6719 66.6008L85.6104 70.5393L79.676 76.4736L62.3853 59.1829L79.676 41.8922L96.9668 59.1829L90.392 65.7577Z" fill="black"/>
<path d="M70.0493 31.7636L67.1354 28.7965L57.2627 38.4558L60.1978 41.4337L66.0894 35.6808L68.7471 38.3384L59.3333 47.7523L49.9301 38.3384L59.3333 28.9353L61.3292 30.9312L65.2783 26.9927L59.3333 21.0477L42.0425 38.3384L59.3333 55.6397L76.6347 38.3384L70.0493 31.7636Z" fill="black"/>
<path d="M65.9187 90.6374L68.8859 87.7236L59.2265 77.8508L56.2487 80.786L62.0016 86.6777L59.3333 89.3353L49.9301 79.9214L59.3333 70.5183L68.7471 79.9214L66.7512 81.9173L70.6897 85.8665L76.6347 79.9214L59.3333 62.6307L42.0425 79.9214L59.3333 97.2229L65.9187 90.6374Z" fill="black"/>
<path d="M27.8786 65.7577L30.7924 68.7355L40.6652 59.0762L37.73 56.0877L31.8384 61.8406L29.1807 59.1829L38.5839 49.7797L47.9977 59.1829L38.5839 68.5967L36.5987 66.6008L32.6495 70.5393L38.5839 76.4736L55.8853 59.1829L38.5839 41.8922L21.2932 59.1829L27.8786 65.7577Z" fill="black"/>
<path d="M59.1417 106.499C49.7727 106.501 40.6136 103.725 32.8225 98.5211C25.0315 93.3176 18.9585 85.9204 15.3717 77.2653C11.7849 68.6101 10.8454 59.0857 12.6719 49.8965C14.4984 40.7073 19.0089 32.2659 25.633 25.6403C32.2571 19.0147 40.6973 14.5025 49.8861 12.6739C59.0748 10.8454 68.5995 11.7827 77.2555 15.3675C85.9115 18.9524 93.31 25.0236 98.5154 32.8135C103.721 40.6034 106.499 49.7619 106.499 59.1308C106.485 71.6874 101.491 83.7259 92.6134 92.6058C83.7356 101.486 71.6983 106.482 59.1417 106.499ZM59.1417 14.2817C50.2756 14.2817 41.6086 16.9109 34.2367 21.8366C26.8648 26.7624 21.1191 33.7634 17.7262 41.9546C14.3333 50.1458 13.4456 59.1593 15.1753 67.855C16.9049 76.5507 21.1744 84.5382 27.4437 90.8075C33.7129 97.0768 41.7005 101.346 50.3962 103.076C59.092 104.806 68.1053 103.918 76.2965 100.525C84.4877 97.1321 91.4889 91.3864 96.4146 84.0145C101.34 76.6426 103.969 67.9756 103.969 59.1095C103.95 47.2265 99.2205 35.8359 90.8179 27.4333C82.4153 19.0308 71.0247 14.3015 59.1417 14.2817Z" fill="black"/>
<circle cx="85" cy="97" r="11" fill="#6C38FF" stroke="black" stroke-width="2"/>
<path d="M93.1616 97.0649C93.1648 94.9776 92.3579 92.9705 90.9108 91.4661C89.4637 89.9618 87.4893 89.0777 85.4034 89V90.0351C87.2158 90.1188 88.9262 90.8977 90.1792 92.2098C91.4321 93.522 92.1313 95.2665 92.1313 97.0808C92.1313 98.8951 91.4321 100.64 90.1792 101.952C88.9262 103.264 87.2158 104.043 85.4034 104.127V105.162C87.4908 105.072 89.463 104.18 90.9085 102.671C92.354 101.163 93.1611 99.1542 93.1616 97.0649Z" fill="white"/>
<path d="M77 97.0654C76.9972 99.166 77.8146 101.185 79.2781 102.692C80.7416 104.198 82.7356 105.074 84.8354 105.133V89.0005C82.7357 89.0578 80.7414 89.9331 79.2777 91.4396C77.814 92.9462 76.9967 94.9649 77 97.0654Z" fill="white"/>
</svg>
