<svg width="24" height="24" viewBox="0 0 24 24" fill="none" xmlns="http://www.w3.org/2000/svg">
<g clip-path="url(#clip0_675_2311)">
<path d="M23.6431 14.9049C23.0686 17.2075 21.8242 19.2881 20.0673 20.8836C18.3104 22.479 16.1199 23.5177 13.7727 23.8683C11.4255 24.2189 9.02711 23.8657 6.88068 22.8532C4.73425 21.8408 2.93622 20.2146 1.71394 18.1804C0.491658 16.1461 -0.0999892 13.7951 0.013807 11.4246C0.127603 9.0541 0.941733 6.77058 2.35326 4.86275C3.76478 2.95493 5.71031 1.50848 7.94385 0.706303C10.1774 -0.095877 12.5986 -0.217765 14.9014 0.35605C17.9898 1.12643 20.6457 3.09194 22.285 5.82028C23.9243 8.54863 24.4128 11.8164 23.6431 14.9049Z" fill="#F7931A"/>
<path d="M17.2921 10.2915C17.5307 8.69417 16.3148 7.83567 14.6515 7.26295L15.191 5.09936L13.8738 4.77089L13.3487 6.87771C13.0027 6.7916 12.6472 6.71005 12.2939 6.62927L12.8228 4.50873L11.5067 4.18065L10.9667 6.34348C10.6802 6.27832 10.399 6.21355 10.1258 6.14572V6.13886L8.31082 5.68541L7.96064 7.09224C7.96064 7.09224 8.93803 7.3163 8.91707 7.33002C9.09935 7.35176 9.26582 7.4442 9.38062 7.58744C9.49543 7.73069 9.54941 7.91328 9.53094 8.09593L8.91631 10.5609C8.96282 10.5725 9.00852 10.5872 9.0531 10.6048L8.9144 10.5701L8.05285 14.0231C8.03385 14.0835 8.00307 14.1395 7.96231 14.188C7.92154 14.2364 7.87159 14.2763 7.81533 14.3053C7.75907 14.3343 7.69762 14.3519 7.63453 14.357C7.57144 14.3622 7.50796 14.3547 7.44774 14.3352C7.4607 14.3543 6.49055 14.0963 6.49055 14.0963L5.83667 15.6045L7.55139 16.0317C7.87033 16.1117 8.18279 16.1951 8.48991 16.274L7.94501 18.4627L9.2604 18.7908L9.80072 16.6257C10.1597 16.7233 10.5087 16.8132 10.8501 16.8982L10.3121 19.0534L11.629 19.3815L12.1739 17.1973C14.4198 17.6222 16.109 17.4507 16.8193 15.4201C17.3908 13.7846 16.7911 12.8411 15.6094 12.2254C16.4698 12.0261 17.118 11.4602 17.291 10.2908L17.2921 10.2915ZM14.2819 14.5113C13.8745 16.1467 11.1192 15.2631 10.2279 15.0409L10.9534 12.1415C11.8462 12.3644 14.7086 12.8053 14.2845 14.5113H14.2819ZM14.6888 10.2679C14.3173 11.754 12.0253 10.9999 11.2815 10.8143L11.9373 8.18509C12.6818 8.3699 15.0767 8.71589 14.6896 10.2679H14.6888Z" fill="white"/>
</g>
<defs>
<clipPath id="clip0_675_2311">
<rect width="24" height="24" fill="white"/>
</clipPath>
</defs>
</svg>
