<svg width="100" height="22" viewBox="0 0 100 22" fill="none" xmlns="http://www.w3.org/2000/svg">
<g clip-path="url(#clip0_1_4084)">
<path d="M19.0161 21.0581C19.0161 21.0581 18.9549 21.0581 18.9142 21.0581C16.8557 20.8543 15.215 19.2136 15.0214 17.1551C15.0112 17.0125 15.001 16.8698 15.001 16.7373V1.40051H18.6594V16.3297C18.6594 16.9207 19.1383 17.3895 19.7192 17.3895H29.5123C30.0932 17.3895 30.5722 16.9105 30.5722 16.3297V1.40051H34.2306V16.7271C34.2306 16.8698 34.2306 17.0125 34.2102 17.1449C34.0166 19.2034 32.3759 20.8441 30.3174 21.0479C30.2766 21.0479 30.2461 21.0479 30.2053 21.0479H18.9957L19.0161 21.0581Z" fill="white"/>
<path d="M64.4247 21.2416C64.4247 21.2416 64.3636 21.2416 64.3228 21.2416C62.2236 21.0377 60.5523 19.3665 60.3485 17.2672C60.3383 17.1246 60.3281 16.9819 60.3281 16.8392V5.18122C60.3281 5.02836 60.3281 4.88569 60.3485 4.74303C60.5523 2.65396 62.2236 0.982707 64.3126 0.778896C64.4553 0.758514 64.598 0.758514 64.7508 0.758514H73.5555C73.5555 0.758514 73.6268 0.758514 73.6574 0.758514C76.2458 0.809467 78.5081 2.38901 79.4354 4.80417C79.7208 5.5277 79.8634 6.29199 79.8634 7.07667C79.8634 10.5007 77.0814 13.3337 73.6676 13.3948C73.6268 13.3948 73.5962 13.3948 73.5555 13.3948H66.8603V9.65488H73.902V9.6345C75.1758 9.46126 76.1337 8.38106 76.1337 7.07667C76.1337 5.77227 75.1656 4.68188 73.902 4.51883V4.49845H65.1381C64.547 4.49845 64.0579 4.97741 64.0579 5.56846V16.4316C64.0579 17.0227 64.5368 17.5118 65.1381 17.5118H74.9923V21.2416H64.4145H64.4247Z" fill="white"/>
<path d="M83.3998 21.0581V17.3997H94.0694C95.3228 17.3997 96.352 16.3704 96.352 15.117C96.352 13.8635 95.333 12.8343 94.0694 12.8343H88.6989C88.0162 12.8343 87.3538 12.7222 86.7219 12.498C85.0405 11.9069 83.6852 10.5516 83.0941 8.88035C82.8699 8.24853 82.7578 7.57595 82.7578 6.89319C82.7578 6.21042 82.8699 5.54803 83.0941 4.91622C83.6852 3.23477 85.0405 1.87943 86.7219 1.28838C87.3538 1.06418 88.0263 0.952087 88.6989 0.952087H98.115V4.6105H88.6989C87.4455 4.6105 86.4162 5.62956 86.4162 6.89319C86.4162 8.15682 87.4353 9.17587 88.6989 9.17587H94.0694C94.7521 9.17587 95.4145 9.28797 96.0463 9.51216C97.7278 10.1032 99.0831 11.4586 99.6742 13.1298C99.8576 13.6393 99.9697 14.1794 100 14.7297V15.5042C99.9697 16.0341 99.8576 16.5742 99.6742 17.0939C99.0831 18.7652 97.7278 20.1205 96.0463 20.7116C95.4145 20.9358 94.7419 21.0479 94.0694 21.0479H83.3998V21.0581Z" fill="white"/>
<path d="M38.041 21.058C38.041 21.058 38.041 4.68181 38.041 4.61047H41.6994V21.058H38.041Z" fill="white"/>
<path d="M57.4029 4.85507C57.1991 2.80677 55.5686 1.16609 53.5101 0.972469C53.3776 0.962278 53.2247 0.952087 53.0821 0.952087H45.3576C43.3399 0.952087 41.6992 2.59277 41.6992 4.6105H53.7648V21.0581H57.4233V5.28307C57.4233 5.13022 57.4233 4.98755 57.4029 4.84488V4.85507Z" fill="white"/>
<path d="M3.65841 17.3997V1.16614H0V16.7271C0 16.8698 0 17.0125 0.0203811 17.1449C0.214002 19.2034 1.85468 20.8441 3.91318 21.0479C3.94375 21.0479 3.98451 21.0479 4.01508 21.0479L12.1064 21.0275V17.3895H3.65841V17.3997Z" fill="white"/>
</g>
<defs>
<clipPath id="clip0_1_4084">
<rect width="100" height="20.483" fill="white" transform="translate(0 0.758484)"/>
</clipPath>
</defs>
</svg>
