<svg width="32" height="32" viewBox="0 0 32 32" fill="none" xmlns="http://www.w3.org/2000/svg">
<g clip-path="url(#clip0_713_2399)">
<rect width="32" height="32" fill="#6C38FF"/>
<path d="M25.0388 16.1015C25.0424 13.7975 24.1516 11.582 22.5543 9.92163C20.9569 8.26125 18.7775 7.28554 16.4751 7.19997V8.34252C18.4757 8.43466 20.3638 9.29425 21.7469 10.7426C23.1301 12.1909 23.9019 14.1166 23.9019 16.1193C23.9019 18.122 23.1301 20.0477 21.7469 21.496C20.3638 22.9444 18.4757 23.804 16.4751 23.8961V25.0386C18.7793 24.9399 20.9563 23.9552 22.5519 22.29C24.1476 20.6248 25.0385 18.4078 25.0388 16.1015Z" fill="white"/>
<path d="M7.19972 16.1015C7.1966 18.4201 8.09879 20.6482 9.71415 22.3115C11.3295 23.9747 13.5304 24.9416 15.848 25.0062V7.19997C13.5305 7.26322 11.3293 8.22924 9.71373 9.89209C8.09817 11.5549 7.19608 13.7831 7.19972 16.1015Z" fill="white"/>
</g>
<defs>
<clipPath id="clip0_713_2399">
<rect width="32" height="32" rx="8" fill="white"/>
</clipPath>
</defs>
</svg>
