<svg width="24" height="24" viewBox="0 0 24 24" fill="none" xmlns="http://www.w3.org/2000/svg">
<g clip-path="url(#clip0_675_2467)">
<path d="M23.9999 11.9768C24.0047 8.87696 22.8064 5.89627 20.6574 3.6623C18.5084 1.42833 15.5763 0.115418 12.4787 0V1.53691C15.171 1.65995 17.7122 2.81606 19.5739 4.76479C21.4356 6.71353 22.4745 9.3049 22.4745 12C22.4745 14.6951 21.4356 17.2865 19.5739 19.2352C17.7122 21.1839 15.171 22.34 12.4787 22.4631V24C15.5784 23.8669 18.5071 22.5421 20.6537 20.302C22.8003 18.0619 23.9991 15.0794 23.9999 11.9768Z" fill="#26D07C"/>
<path d="M1.47163e-05 11.9768C-0.00440025 15.0964 1.20938 18.0945 3.38283 20.3324C5.55628 22.5703 8.51761 23.8712 11.636 23.9579V0C8.51783 0.0851205 5.55623 1.38488 3.38256 3.6222C1.2089 5.85952 -0.00487495 8.85741 1.47163e-05 11.9768Z" fill="#26D07C"/>
</g>
<defs>
<clipPath id="clip0_675_2467">
<rect width="24" height="24" fill="white"/>
</clipPath>
</defs>
</svg>
