<svg width="16" height="16" viewBox="0 0 16 16" fill="none" xmlns="http://www.w3.org/2000/svg">
<path opacity="0.4" d="M14.1666 7.99967C14.1666 11.4054 11.4057 14.1663 7.99992 14.1663C4.59416 14.1663 1.83325 11.4054 1.83325 7.99967C1.83325 4.59392 4.59416 1.83301 7.99992 1.83301C11.4057 1.83301 14.1666 4.59392 14.1666 7.99967Z" fill="#26D07C" stroke="#26D07C"/>
<mask id="path-2-inside-1_3_123213" fill="white">
<path d="M7.05321 10.3867C6.91988 10.3867 6.79321 10.3334 6.69988 10.2401L4.81321 8.3534C4.61988 8.16007 4.61988 7.84007 4.81321 7.64673C5.00655 7.4534 5.32655 7.4534 5.51988 7.64673L7.05321 9.18007L10.4799 5.7534C10.6732 5.56007 10.9932 5.56007 11.1865 5.7534C11.3799 5.94673 11.3799 6.26673 11.1865 6.46006L7.40655 10.2401C7.31321 10.3334 7.18655 10.3867 7.05321 10.3867Z"/>
</mask>
<path d="M7.05321 10.3867C6.91988 10.3867 6.79321 10.3334 6.69988 10.2401L4.81321 8.3534C4.61988 8.16007 4.61988 7.84007 4.81321 7.64673C5.00655 7.4534 5.32655 7.4534 5.51988 7.64673L7.05321 9.18007L10.4799 5.7534C10.6732 5.56007 10.9932 5.56007 11.1865 5.7534C11.3799 5.94673 11.3799 6.26673 11.1865 6.46006L7.40655 10.2401C7.31321 10.3334 7.18655 10.3867 7.05321 10.3867Z" fill="#26D07C"/>
<path d="M6.69988 10.2401L7.40699 9.53296H7.40699L6.69988 10.2401ZM4.81321 8.3534L4.10611 9.06051H4.10611L4.81321 8.3534ZM5.51988 7.64673L6.22699 6.93963L5.51988 7.64673ZM7.05321 9.18007L6.34611 9.88717L7.05321 10.5943L7.76032 9.88717L7.05321 9.18007ZM10.4799 5.7534L11.187 6.46051L10.4799 5.7534ZM11.1865 6.46006L11.8937 7.16717V7.16717L11.1865 6.46006ZM7.40655 10.2401L6.69944 9.53296L7.40655 10.2401ZM7.05321 9.38673C7.18811 9.38673 7.31492 9.4409 7.40699 9.53296L5.99277 10.9472C6.2715 11.2259 6.65165 11.3867 7.05321 11.3867V9.38673ZM7.40699 9.53296L5.52032 7.64629L4.10611 9.06051L5.99277 10.9472L7.40699 9.53296ZM5.52032 7.64629C5.71751 7.84348 5.71751 8.15665 5.52032 8.35384L4.10611 6.93963C3.52225 7.52348 3.52225 8.47665 4.10611 9.06051L5.52032 7.64629ZM5.52032 8.35384C5.32313 8.55103 5.00996 8.55103 4.81277 8.35384L6.22699 6.93963C5.64313 6.35577 4.68996 6.35577 4.10611 6.93963L5.52032 8.35384ZM4.81277 8.35384L6.34611 9.88717L7.76032 8.47296L6.22699 6.93963L4.81277 8.35384ZM7.76032 9.88717L11.187 6.46051L9.77277 5.04629L6.34611 8.47296L7.76032 9.88717ZM11.187 6.46051C10.9898 6.6577 10.6766 6.6577 10.4794 6.46051L11.8937 5.04629C11.3098 4.46243 10.3566 4.46243 9.77277 5.04629L11.187 6.46051ZM10.4794 6.46051C10.2822 6.26331 10.2822 5.95015 10.4794 5.75296L11.8937 7.16717C12.4775 6.58331 12.4775 5.63015 11.8937 5.04629L10.4794 6.46051ZM10.4794 5.75296L6.69944 9.53296L8.11365 10.9472L11.8937 7.16717L10.4794 5.75296ZM6.69944 9.53296C6.7915 9.4409 6.91832 9.38673 7.05321 9.38673V11.3867C7.45478 11.3867 7.83492 11.2259 8.11365 10.9472L6.69944 9.53296Z" fill="#26D07C" mask="url(#path-2-inside-1_3_123213)"/>
</svg>
