<svg width="32" height="32" viewBox="0 0 32 32" fill="none" xmlns="http://www.w3.org/2000/svg">
<path d="M22.667 12.3333H18.667" stroke="#8A8A8E" stroke-width="1.5" stroke-miterlimit="10" stroke-linecap="round" stroke-linejoin="round"/>
<path d="M11.9997 12.3333H9.33301" stroke="#8A8A8E" stroke-width="1.5" stroke-miterlimit="10" stroke-linecap="round" stroke-linejoin="round"/>
<path d="M14.6663 14.6667C15.955 14.6667 16.9997 13.622 16.9997 12.3333C16.9997 11.0447 15.955 10 14.6663 10C13.3777 10 12.333 11.0447 12.333 12.3333C12.333 13.622 13.3777 14.6667 14.6663 14.6667Z" stroke="#8A8A8E" stroke-width="1.5" stroke-miterlimit="10" stroke-linecap="round" stroke-linejoin="round"/>
<path d="M22.6667 19.6667H20" stroke="#8A8A8E" stroke-width="1.5" stroke-miterlimit="10" stroke-linecap="round" stroke-linejoin="round"/>
<path d="M13.333 19.6667H9.33301" stroke="#8A8A8E" stroke-width="1.5" stroke-miterlimit="10" stroke-linecap="round" stroke-linejoin="round"/>
<path d="M17.3333 22C18.622 22 19.6667 20.9553 19.6667 19.6667C19.6667 18.378 18.622 17.3333 17.3333 17.3333C16.0447 17.3333 15 18.378 15 19.6667C15 20.9553 16.0447 22 17.3333 22Z" stroke="#8A8A8E" stroke-width="1.5" stroke-miterlimit="10" stroke-linecap="round" stroke-linejoin="round"/>
</svg>
