<svg width="24" height="24" viewBox="0 0 24 24" fill="none" xmlns="http://www.w3.org/2000/svg">
<path d="M22 15C22 18.87 18.87 22 15 22L16.05 20.25" stroke="#26D07C" stroke-width="1.5" stroke-linecap="round" stroke-linejoin="round"/>
<path d="M2 9C2 5.13 5.13 2 9 2L7.95 3.75" stroke="#26D07C" stroke-width="1.5" stroke-linecap="round" stroke-linejoin="round"/>
<path d="M13.7002 4.45001L17.6802 6.75L21.6202 4.46002" stroke="#26D07C" stroke-width="1.5" stroke-linecap="round" stroke-linejoin="round"/>
<path d="M17.6802 10.82V6.73999" stroke="#26D07C" stroke-width="1.5" stroke-linecap="round" stroke-linejoin="round"/>
<path d="M16.7401 2.21L14.3401 3.53996C13.8001 3.83996 13.3501 4.59995 13.3501 5.21995V7.75999C13.3501 8.37999 13.7901 9.13998 14.3401 9.43998L16.7401 10.77C17.2501 11.06 18.0901 11.06 18.6101 10.77L21.0101 9.43998C21.5501 9.13998 22.0001 8.37999 22.0001 7.75999V5.21995C22.0001 4.59995 21.5601 3.83996 21.0101 3.53996L18.6101 2.21C18.1001 1.93 17.2601 1.93 16.7401 2.21Z" stroke="#26D07C" stroke-width="1.5" stroke-linecap="round" stroke-linejoin="round"/>
<path d="M2.3501 15.45L6.3201 17.75L10.2701 15.46" stroke="#26D07C" stroke-width="1.5" stroke-linecap="round" stroke-linejoin="round"/>
<path d="M6.32007 21.82V17.74" stroke="#26D07C" stroke-width="1.5" stroke-linecap="round" stroke-linejoin="round"/>
<path d="M10.65 16.23C10.65 15.61 10.21 14.85 9.66 14.55L7.25999 13.2199C6.74999 12.9299 5.91 12.9299 5.39 13.2199L2.99001 14.55C2.45001 14.85 2 15.61 2 16.23V18.77C2 19.39 2.44001 20.15 2.99001 20.45L5.39 21.78C5.9 22.07 6.73999 22.07 7.25999 21.78L9.66 20.45" stroke="#26D07C" stroke-width="1.5" stroke-linecap="round" stroke-linejoin="round"/>
</svg>
