<svg width="117" height="117" viewBox="0 0 117 117" fill="none" xmlns="http://www.w3.org/2000/svg">
<rect width="117" height="117" rx="58.5" fill="white"/>
<path d="M82.6348 45.5789V69.8252C82.6341 73.0235 82.0022 76.1901 80.7755 79.1425C79.5488 82.0949 77.7515 84.7748 75.4871 87.0277C73.2227 89.2807 70.5361 91.0622 67.5819 92.2696C64.6278 93.4771 61.4646 94.0865 58.2744 94.0629C44.9422 93.9665 34.2736 82.8905 34.2736 69.5215V45.5789H46.2839C47.1345 45.5789 47.9502 45.9176 48.5517 46.5206C49.1531 47.1236 49.491 47.9414 49.491 48.7941V69.635C49.491 74.5274 53.3152 78.665 58.1952 78.8012C59.3926 78.835 60.5846 78.6277 61.7008 78.1917C62.817 77.7557 63.8346 77.0997 64.6935 76.2626C65.5525 75.4256 66.2354 74.4244 66.7018 73.3182C67.1681 72.212 67.4086 71.0233 67.4089 69.8223V48.7913C67.4085 48.3692 67.4911 47.9511 67.652 47.5611C67.8128 47.171 68.0488 46.8165 68.3464 46.5179C68.644 46.2193 68.9973 45.9824 69.3863 45.8208C69.7752 45.6592 70.1921 45.576 70.6131 45.576L82.6348 45.5789Z" fill="#1D1D1B"/>
<path d="M82.6319 33.7537V45.5789L58.4499 34.6533L34.2736 45.5789V33.7537L58.4499 22.8281L82.6319 33.7537Z" fill="#009FE3"/>
</svg>
