<svg width="16" height="16" viewBox="0 0 16 16" fill="none" xmlns="http://www.w3.org/2000/svg">
<path opacity="0.4" d="M3.23664 11.6667L3.2366 11.6667C2.74553 11.3832 2.43994 10.8554 2.43994 10.2797V5.7197C2.43994 5.15281 2.7438 4.62302 3.2384 4.33165L7.1966 2.04603C7.19662 2.04602 7.19663 2.04601 7.19664 2.046C7.68751 1.76263 8.29739 1.76119 8.79762 2.04659C8.79793 2.04677 8.79825 2.04695 8.79856 2.04713L12.7533 4.33075C12.7538 4.33105 12.7543 4.33135 12.7548 4.33164C13.2502 4.62344 13.5533 5.14702 13.5533 5.7197V10.2797C13.5533 10.8466 13.2495 11.3764 12.7548 11.6677C12.7543 11.668 12.7538 11.6683 12.7533 11.6686L8.79664 13.9533C8.30576 14.2367 7.69586 14.2382 7.19562 13.9528C7.19531 13.9526 7.195 13.9524 7.19468 13.9522L3.23664 11.6667Z" fill="#FE5F00" stroke="#FE5F00"/>
<path d="M8 9.16699C7.72667 9.16699 7.5 8.94033 7.5 8.66699V5.16699C7.5 4.89366 7.72667 4.66699 8 4.66699C8.27333 4.66699 8.5 4.89366 8.5 5.16699V8.66699C8.5 8.94033 8.27333 9.16699 8 9.16699Z" fill="#FE5F00"/>
<path d="M7.99992 11.4996C7.91325 11.4996 7.82658 11.4796 7.74658 11.4462C7.65992 11.4129 7.59324 11.3663 7.52657 11.3063C7.46657 11.2396 7.41992 11.1662 7.37992 11.0862C7.34659 11.0062 7.33325 10.9196 7.33325 10.8329C7.33325 10.6596 7.3999 10.4862 7.52657 10.3596C7.59324 10.2996 7.65992 10.2529 7.74658 10.2196C7.99325 10.1129 8.2866 10.1729 8.47327 10.3596C8.53327 10.4262 8.57991 10.4929 8.61324 10.5796C8.64657 10.6596 8.66659 10.7462 8.66659 10.8329C8.66659 10.9196 8.64657 11.0062 8.61324 11.0862C8.57991 11.1662 8.53327 11.2396 8.47327 11.3063C8.3466 11.4329 8.17992 11.4996 7.99992 11.4996Z" fill="#FE5F00"/>
</svg>
