<svg width="116" height="25" viewBox="0 0 116 25" fill="none" xmlns="http://www.w3.org/2000/svg">
<g clip-path="url(#clip0_139_123606)">
<path d="M22.3684 24.2848C22.3684 24.2848 22.2981 24.2848 22.2513 24.2848C19.884 24.046 17.9972 22.1236 17.7745 19.7117C17.7628 19.5445 17.7511 19.3773 17.7511 19.2221V1.25195H21.9583V18.7445C21.9583 19.437 22.5091 19.9863 23.1771 19.9863H34.4392C35.1072 19.9863 35.658 19.4251 35.658 18.7445V1.25195H39.8651V19.2102C39.8651 19.3773 39.8651 19.5445 39.8417 19.6997C39.619 22.1117 37.7323 24.034 35.365 24.2729C35.3181 24.2729 35.2829 24.2729 35.2361 24.2729H22.345L22.3684 24.2848Z" fill="#6C38FF"/>
<path d="M74.5887 24.5C74.5887 24.5 74.5183 24.5 74.4715 24.5C72.0573 24.2612 70.1354 22.303 69.901 19.8433C69.8893 19.6761 69.8776 19.509 69.8776 19.3418V5.68209C69.8776 5.50299 69.8776 5.33582 69.901 5.16866C70.1354 2.7209 72.0573 0.762687 74.4598 0.523881C74.6238 0.5 74.7879 0.5 74.9637 0.5H85.089C85.089 0.5 85.1711 0.5 85.2062 0.5C88.1829 0.559701 90.7845 2.41045 91.851 5.2403C92.1791 6.08806 92.3432 6.98358 92.3432 7.90298C92.3432 11.9149 89.1438 15.2343 85.2179 15.306C85.1711 15.306 85.1359 15.306 85.089 15.306H77.3895V10.9239H85.4875V10.9C86.9524 10.697 88.054 9.43134 88.054 7.90298C88.054 6.37463 86.9406 5.09701 85.4875 4.90597V4.88209H75.409C74.7293 4.88209 74.1668 5.44328 74.1668 6.13582V18.8642C74.1668 19.5567 74.7176 20.1299 75.409 20.1299H86.7414V24.5H74.5769H74.5887Z" fill="#6C38FF"/>
<path d="M96.4096 24.2848V19.9982H108.68C110.121 19.9982 111.305 18.7922 111.305 17.3236C111.305 15.8549 110.133 14.649 108.68 14.649H102.504C101.718 14.649 100.957 14.5176 100.23 14.2549C98.2964 13.5624 96.7377 11.9743 96.058 10.0161C95.8002 9.27582 95.6713 8.48776 95.6713 7.68776C95.6713 6.88776 95.8002 6.11164 96.058 5.37134C96.7377 3.40119 98.2964 1.81313 100.23 1.12059C100.957 0.857906 101.73 0.726562 102.504 0.726562H113.332V5.01313H102.504C101.062 5.01313 99.8784 6.20716 99.8784 7.68776C99.8784 9.16836 101.05 10.3624 102.504 10.3624H108.68C109.465 10.3624 110.226 10.4937 110.953 10.7564C112.887 11.449 114.445 13.037 115.125 14.9952C115.336 15.5922 115.465 16.2251 115.5 16.8699V17.7773C115.465 18.3982 115.336 19.031 115.125 19.64C114.445 21.5982 112.887 23.1863 110.953 23.8788C110.226 24.1415 109.453 24.2728 108.68 24.2728H96.4096V24.2848Z" fill="#6C38FF"/>
<path d="M44.2476 24.2853C44.2476 24.2853 44.2476 5.09725 44.2476 5.01367H48.4547V24.2853H44.2476Z" fill="#6C38FF"/>
<path d="M66.6233 5.37392C66.3889 2.97392 64.5138 1.05153 62.1466 0.824662C61.9942 0.812722 61.8184 0.800781 61.6544 0.800781H52.7713C50.4509 0.800781 48.5641 2.72317 48.5641 5.08735H62.4396V24.359H66.6467V5.87541C66.6467 5.6963 66.6467 5.52914 66.6233 5.36198V5.37392Z" fill="#6C38FF"/>
<path d="M4.70717 19.9984V0.977539H0.5V19.2104C0.5 19.3775 0.5 19.5447 0.523438 19.6999C0.746102 22.1119 2.63288 24.0343 5.00015 24.2731C5.03531 24.2731 5.08219 24.2731 5.11734 24.2731L14.4223 24.2492V19.9865H4.70717V19.9984Z" fill="#6C38FF"/>
</g>
<defs>
<clipPath id="clip0_139_123606">
<rect width="115" height="24" fill="white" transform="translate(0.5 0.5)"/>
</clipPath>
</defs>
</svg>
